<svg width="23" height="23" viewBox="0 0 23 23" fill="none" xmlns="http://www.w3.org/2000/svg">
<g filter="url(#filter0_d_1_844)">
<path fill-rule="evenodd" clip-rule="evenodd" d="M8.40783 0.0449695C9.20761 0.00815129 9.46261 -3.05176e-05 11.4999 -3.05176e-05C13.5372 -3.05176e-05 13.7922 0.00883311 14.5912 0.0449695C15.3903 0.0811058 15.9358 0.208606 16.4131 0.393379C16.9128 0.582242 17.3662 0.877469 17.7412 1.25929C18.1231 1.63361 18.4176 2.08633 18.6058 2.58679C18.7912 3.06406 18.9181 3.60952 18.9549 4.40724C18.9917 5.20838 18.9999 5.46338 18.9999 7.49997C18.9999 9.53724 18.991 9.79224 18.9549 10.592C18.9187 11.3897 18.7912 11.9352 18.6058 12.4125C18.4176 12.913 18.1226 13.3665 17.7412 13.7413C17.3662 14.1232 16.9128 14.4177 16.4131 14.6059C15.9358 14.7913 15.3903 14.9182 14.5926 14.955C13.7922 14.9918 13.5372 15 11.4999 15C9.46261 15 9.20761 14.9911 8.40783 14.955C7.61011 14.9188 7.06465 14.7913 6.58738 14.6059C6.08687 14.4177 5.63339 14.1226 5.25851 13.7413C4.87696 13.3668 4.58168 12.9135 4.39329 12.4132C4.20851 11.9359 4.0817 11.3904 4.04488 10.5927C4.00806 9.79156 3.99988 9.53656 3.99988 7.49997C3.99988 5.4627 4.00874 5.2077 4.04488 4.40861C4.08101 3.60951 4.20851 3.06406 4.39329 2.58679C4.58196 2.08639 4.87746 1.63314 5.2592 1.25861C5.63354 0.877129 6.08656 0.581863 6.5867 0.393379C7.06397 0.208606 7.60942 0.0817877 8.40715 0.0449695H8.40783ZM14.5306 1.39497C13.7397 1.35883 13.5024 1.35133 11.4999 1.35133C9.49738 1.35133 9.26011 1.35883 8.4692 1.39497C7.73761 1.42838 7.34079 1.55042 7.07624 1.65338C6.72647 1.78974 6.47624 1.95133 6.21374 2.21383C5.96491 2.45591 5.77341 2.75062 5.65329 3.07633C5.55033 3.34088 5.42829 3.7377 5.39488 4.46929C5.35874 5.2602 5.35124 5.49747 5.35124 7.49997C5.35124 9.50247 5.35874 9.73974 5.39488 10.5307C5.42829 11.2622 5.55033 11.6591 5.65329 11.9236C5.77329 12.2488 5.96488 12.5441 6.21374 12.7861C6.45579 13.035 6.75101 13.2266 7.07624 13.3466C7.34079 13.4495 7.73761 13.5716 8.4692 13.605C9.26011 13.6411 9.4967 13.6486 11.4999 13.6486C13.5031 13.6486 13.7397 13.6411 14.5306 13.605C15.2622 13.5716 15.659 13.4495 15.9235 13.3466C16.2733 13.2102 16.5235 13.0486 16.786 12.7861C17.0349 12.5441 17.2265 12.2488 17.3465 11.9236C17.4494 11.6591 17.5715 11.2622 17.6049 10.5307C17.641 9.73974 17.6485 9.50247 17.6485 7.49997C17.6485 5.49747 17.641 5.2602 17.6049 4.46929C17.5715 3.7377 17.4494 3.34088 17.3465 3.07633C17.2101 2.72656 17.0485 2.47633 16.786 2.21383C16.5439 1.96502 16.2492 1.77352 15.9235 1.65338C15.659 1.55042 15.2622 1.42838 14.5306 1.39497ZM10.5419 9.81201C11.0769 10.0347 11.6726 10.0648 12.2273 9.89705C12.782 9.72933 13.2613 9.37423 13.5832 8.89241C13.9052 8.41059 14.0499 7.83193 13.9926 7.25527C13.9354 6.67861 13.6797 6.13972 13.2692 5.73065C13.0075 5.46916 12.6912 5.26893 12.3428 5.14439C11.9945 5.01984 11.6229 4.97408 11.2548 5.01039C10.8866 5.0467 10.5311 5.16418 10.2138 5.35438C9.89655 5.54457 9.62539 5.80275 9.41986 6.11032C9.21433 6.4179 9.07955 6.76721 9.02523 7.13312C8.97091 7.49904 8.99839 7.87244 9.1057 8.22646C9.21301 8.58047 9.39748 8.90629 9.64582 9.18046C9.89417 9.45463 10.2002 9.67032 10.5419 9.81201ZM8.77397 4.77406C9.13194 4.41609 9.55691 4.13213 10.0246 3.9384C10.4923 3.74466 10.9936 3.64495 11.4999 3.64495C12.0061 3.64495 12.5074 3.74466 12.9751 3.9384C13.4428 4.13213 13.8678 4.41609 14.2258 4.77406C14.5838 5.13203 14.8677 5.55701 15.0615 6.02472C15.2552 6.49243 15.3549 6.99372 15.3549 7.49997C15.3549 8.00622 15.2552 8.50751 15.0615 8.97522C14.8677 9.44293 14.5838 9.86791 14.2258 10.2259C13.5028 10.9488 12.5223 11.355 11.4999 11.355C10.4775 11.355 9.49692 10.9488 8.77397 10.2259C8.05101 9.50292 7.64486 8.52238 7.64486 7.49997C7.64486 6.47756 8.05101 5.49702 8.77397 4.77406ZM16.2099 4.21906C16.2986 4.13538 16.3696 4.03475 16.4187 3.92313C16.4678 3.81152 16.4941 3.69118 16.4958 3.56924C16.4976 3.4473 16.4749 3.32625 16.4291 3.21325C16.3832 3.10025 16.3152 2.99759 16.2289 2.91136C16.1427 2.82513 16.0401 2.75708 15.9271 2.71123C15.8141 2.66539 15.693 2.64268 15.5711 2.64446C15.4491 2.64624 15.3288 2.67246 15.2172 2.72158C15.1056 2.7707 15.0049 2.84172 14.9212 2.93042C14.7585 3.10294 14.6694 3.3321 14.6729 3.56924C14.6763 3.80638 14.7721 4.03284 14.9398 4.20054C15.1075 4.36825 15.3339 4.46399 15.5711 4.46745C15.8082 4.4709 16.0374 4.3818 16.2099 4.21906Z" fill="black"/>
</g>
<defs>
<filter id="filter0_d_1_844" x="-0.00012207" y="-3.05176e-05" width="23" height="23" filterUnits="userSpaceOnUse" color-interpolation-filters="sRGB">
<feFlood flood-opacity="0" result="BackgroundImageFix"/>
<feColorMatrix in="SourceAlpha" type="matrix" values="0 0 0 0 0 0 0 0 0 0 0 0 0 0 0 0 0 0 127 0" result="hardAlpha"/>
<feOffset dy="4"/>
<feGaussianBlur stdDeviation="2"/>
<feComposite in2="hardAlpha" operator="out"/>
<feColorMatrix type="matrix" values="0 0 0 0 0 0 0 0 0 0 0 0 0 0 0 0 0 0 0.25 0"/>
<feBlend mode="normal" in2="BackgroundImageFix" result="effect1_dropShadow_1_844"/>
<feBlend mode="normal" in="SourceGraphic" in2="effect1_dropShadow_1_844" result="shape"/>
</filter>
</defs>
</svg>
